<mxfile host="app.diagrams.net" modified="2021-07-06T16:52:06.592Z" agent="5.0 (Windows NT 10.0; Win64; x64) AppleWebKit/537.36 (KHTML, like Gecko) Chrome/91.0.4472.124 Safari/537.36" etag="-oYApvv_Yge8YGyD8dIb" version="14.8.4" type="github">
  <diagram id="HIU6jp8AZ2QUJy9HVyy7" name="Page-1">
    <mxGraphModel dx="868" dy="482" grid="1" gridSize="10" guides="1" tooltips="1" connect="1" arrows="1" fold="1" page="1" pageScale="1" pageWidth="827" pageHeight="1169" math="0" shadow="0">
      <root>
        <mxCell id="0" />
        <mxCell id="1" parent="0" />
        <mxCell id="lR953RYhTkeYb5tcaeql-1" value="Google Pay User Journey to make a payment to a friend" style="rounded=0;whiteSpace=wrap;html=1;" vertex="1" parent="1">
          <mxGeometry x="10" y="120" width="390" height="60" as="geometry" />
        </mxCell>
        <mxCell id="lR953RYhTkeYb5tcaeql-38" style="edgeStyle=orthogonalEdgeStyle;rounded=0;orthogonalLoop=1;jettySize=auto;html=1;exitX=0.5;exitY=1;exitDx=0;exitDy=0;entryX=0;entryY=0.5;entryDx=0;entryDy=0;" edge="1" parent="1" source="lR953RYhTkeYb5tcaeql-2" target="lR953RYhTkeYb5tcaeql-3">
          <mxGeometry relative="1" as="geometry">
            <Array as="points">
              <mxPoint x="110" y="330" />
            </Array>
          </mxGeometry>
        </mxCell>
        <mxCell id="lR953RYhTkeYb5tcaeql-2" value="Open Google Pay App and Enter Pin" style="rounded=0;whiteSpace=wrap;html=1;" vertex="1" parent="1">
          <mxGeometry x="50" y="220" width="120" height="60" as="geometry" />
        </mxCell>
        <mxCell id="lR953RYhTkeYb5tcaeql-44" style="edgeStyle=orthogonalEdgeStyle;rounded=0;orthogonalLoop=1;jettySize=auto;html=1;exitX=1;exitY=0.5;exitDx=0;exitDy=0;entryX=0;entryY=0.5;entryDx=0;entryDy=0;" edge="1" parent="1" source="lR953RYhTkeYb5tcaeql-3" target="lR953RYhTkeYb5tcaeql-12">
          <mxGeometry relative="1" as="geometry" />
        </mxCell>
        <mxCell id="lR953RYhTkeYb5tcaeql-3" value="QR Code Scanner" style="rounded=0;whiteSpace=wrap;html=1;" vertex="1" parent="1">
          <mxGeometry x="200" y="300" width="120" height="60" as="geometry" />
        </mxCell>
        <mxCell id="lR953RYhTkeYb5tcaeql-47" style="edgeStyle=orthogonalEdgeStyle;rounded=0;orthogonalLoop=1;jettySize=auto;html=1;exitX=1;exitY=0.5;exitDx=0;exitDy=0;entryX=0;entryY=0.5;entryDx=0;entryDy=0;" edge="1" parent="1" source="lR953RYhTkeYb5tcaeql-4" target="lR953RYhTkeYb5tcaeql-13">
          <mxGeometry relative="1" as="geometry" />
        </mxCell>
        <mxCell id="lR953RYhTkeYb5tcaeql-4" value="Make Payment to Previously Paid or Got Paid From People" style="rounded=0;whiteSpace=wrap;html=1;" vertex="1" parent="1">
          <mxGeometry x="200" y="370" width="120" height="60" as="geometry" />
        </mxCell>
        <mxCell id="lR953RYhTkeYb5tcaeql-50" style="edgeStyle=orthogonalEdgeStyle;rounded=0;orthogonalLoop=1;jettySize=auto;html=1;exitX=1;exitY=0.5;exitDx=0;exitDy=0;entryX=0;entryY=0.5;entryDx=0;entryDy=0;" edge="1" parent="1" source="lR953RYhTkeYb5tcaeql-6" target="lR953RYhTkeYb5tcaeql-11">
          <mxGeometry relative="1" as="geometry" />
        </mxCell>
        <mxCell id="lR953RYhTkeYb5tcaeql-6" value="&#39;New Payment&#39; Button" style="rounded=0;whiteSpace=wrap;html=1;" vertex="1" parent="1">
          <mxGeometry x="200" y="440" width="120" height="60" as="geometry" />
        </mxCell>
        <mxCell id="lR953RYhTkeYb5tcaeql-57" style="edgeStyle=orthogonalEdgeStyle;rounded=0;orthogonalLoop=1;jettySize=auto;html=1;exitX=1;exitY=0.5;exitDx=0;exitDy=0;entryX=0;entryY=0.5;entryDx=0;entryDy=0;" edge="1" parent="1" source="lR953RYhTkeYb5tcaeql-7" target="lR953RYhTkeYb5tcaeql-18">
          <mxGeometry relative="1" as="geometry" />
        </mxCell>
        <mxCell id="lR953RYhTkeYb5tcaeql-7" value="Search People on &#39;Search Bar&#39;" style="rounded=0;whiteSpace=wrap;html=1;" vertex="1" parent="1">
          <mxGeometry x="360" y="440" width="120" height="60" as="geometry" />
        </mxCell>
        <mxCell id="lR953RYhTkeYb5tcaeql-60" style="edgeStyle=orthogonalEdgeStyle;rounded=0;orthogonalLoop=1;jettySize=auto;html=1;exitX=1;exitY=0.5;exitDx=0;exitDy=0;entryX=0;entryY=0.5;entryDx=0;entryDy=0;" edge="1" parent="1" source="lR953RYhTkeYb5tcaeql-8" target="lR953RYhTkeYb5tcaeql-21">
          <mxGeometry relative="1" as="geometry" />
        </mxCell>
        <mxCell id="lR953RYhTkeYb5tcaeql-8" value="Bank Transfer" style="rounded=0;whiteSpace=wrap;html=1;" vertex="1" parent="1">
          <mxGeometry x="360" y="510" width="120" height="60" as="geometry" />
        </mxCell>
        <mxCell id="lR953RYhTkeYb5tcaeql-63" style="edgeStyle=orthogonalEdgeStyle;rounded=0;orthogonalLoop=1;jettySize=auto;html=1;exitX=1;exitY=0.5;exitDx=0;exitDy=0;entryX=0;entryY=0.5;entryDx=0;entryDy=0;" edge="1" parent="1" source="lR953RYhTkeYb5tcaeql-9" target="lR953RYhTkeYb5tcaeql-24">
          <mxGeometry relative="1" as="geometry" />
        </mxCell>
        <mxCell id="lR953RYhTkeYb5tcaeql-9" value="Payment via Phone Number" style="rounded=0;whiteSpace=wrap;html=1;" vertex="1" parent="1">
          <mxGeometry x="360" y="580" width="120" height="60" as="geometry" />
        </mxCell>
        <mxCell id="lR953RYhTkeYb5tcaeql-66" style="edgeStyle=orthogonalEdgeStyle;rounded=0;orthogonalLoop=1;jettySize=auto;html=1;exitX=1;exitY=0.5;exitDx=0;exitDy=0;entryX=0;entryY=0.5;entryDx=0;entryDy=0;" edge="1" parent="1" source="lR953RYhTkeYb5tcaeql-10" target="lR953RYhTkeYb5tcaeql-27">
          <mxGeometry relative="1" as="geometry" />
        </mxCell>
        <mxCell id="lR953RYhTkeYb5tcaeql-10" value="UPI ID or QR Code" style="rounded=0;whiteSpace=wrap;html=1;" vertex="1" parent="1">
          <mxGeometry x="360" y="650" width="120" height="60" as="geometry" />
        </mxCell>
        <mxCell id="lR953RYhTkeYb5tcaeql-69" style="edgeStyle=orthogonalEdgeStyle;rounded=0;orthogonalLoop=1;jettySize=auto;html=1;exitX=1;exitY=0.5;exitDx=0;exitDy=0;entryX=0;entryY=0.5;entryDx=0;entryDy=0;" edge="1" parent="1" source="lR953RYhTkeYb5tcaeql-11" target="lR953RYhTkeYb5tcaeql-14">
          <mxGeometry relative="1" as="geometry" />
        </mxCell>
        <mxCell id="lR953RYhTkeYb5tcaeql-11" value="Select Friend by Scrolling" style="rounded=0;whiteSpace=wrap;html=1;" vertex="1" parent="1">
          <mxGeometry x="360" y="720" width="120" height="60" as="geometry" />
        </mxCell>
        <mxCell id="lR953RYhTkeYb5tcaeql-45" style="edgeStyle=orthogonalEdgeStyle;rounded=0;orthogonalLoop=1;jettySize=auto;html=1;exitX=1;exitY=0.5;exitDx=0;exitDy=0;entryX=0;entryY=0.5;entryDx=0;entryDy=0;" edge="1" parent="1" source="lR953RYhTkeYb5tcaeql-12" target="lR953RYhTkeYb5tcaeql-28">
          <mxGeometry relative="1" as="geometry" />
        </mxCell>
        <mxCell id="lR953RYhTkeYb5tcaeql-12" value="Scan Friend&#39;s QR Code" style="rounded=0;whiteSpace=wrap;html=1;" vertex="1" parent="1">
          <mxGeometry x="360" y="300" width="120" height="60" as="geometry" />
        </mxCell>
        <mxCell id="lR953RYhTkeYb5tcaeql-48" style="edgeStyle=orthogonalEdgeStyle;rounded=0;orthogonalLoop=1;jettySize=auto;html=1;exitX=1;exitY=0.5;exitDx=0;exitDy=0;entryX=0;entryY=0.5;entryDx=0;entryDy=0;" edge="1" parent="1" source="lR953RYhTkeYb5tcaeql-13" target="lR953RYhTkeYb5tcaeql-16">
          <mxGeometry relative="1" as="geometry" />
        </mxCell>
        <mxCell id="lR953RYhTkeYb5tcaeql-13" value="Select Friend whom you want to pay" style="rounded=0;whiteSpace=wrap;html=1;" vertex="1" parent="1">
          <mxGeometry x="360" y="370" width="120" height="60" as="geometry" />
        </mxCell>
        <mxCell id="lR953RYhTkeYb5tcaeql-70" style="edgeStyle=orthogonalEdgeStyle;rounded=0;orthogonalLoop=1;jettySize=auto;html=1;exitX=1;exitY=0.5;exitDx=0;exitDy=0;entryX=0;entryY=0.5;entryDx=0;entryDy=0;" edge="1" parent="1" source="lR953RYhTkeYb5tcaeql-14" target="lR953RYhTkeYb5tcaeql-31">
          <mxGeometry relative="1" as="geometry" />
        </mxCell>
        <mxCell id="lR953RYhTkeYb5tcaeql-14" value="Enter Amount and Other Details" style="rounded=0;whiteSpace=wrap;html=1;" vertex="1" parent="1">
          <mxGeometry x="490" y="720" width="120" height="60" as="geometry" />
        </mxCell>
        <mxCell id="lR953RYhTkeYb5tcaeql-15" value="Enter UPI Pin and Pay" style="rounded=0;whiteSpace=wrap;html=1;" vertex="1" parent="1">
          <mxGeometry x="620" y="300" width="120" height="60" as="geometry" />
        </mxCell>
        <mxCell id="lR953RYhTkeYb5tcaeql-49" style="edgeStyle=orthogonalEdgeStyle;rounded=0;orthogonalLoop=1;jettySize=auto;html=1;exitX=1;exitY=0.5;exitDx=0;exitDy=0;entryX=0;entryY=0.5;entryDx=0;entryDy=0;" edge="1" parent="1" source="lR953RYhTkeYb5tcaeql-16" target="lR953RYhTkeYb5tcaeql-17">
          <mxGeometry relative="1" as="geometry" />
        </mxCell>
        <mxCell id="lR953RYhTkeYb5tcaeql-16" value="Enter Amount And Other Details" style="rounded=0;whiteSpace=wrap;html=1;" vertex="1" parent="1">
          <mxGeometry x="490" y="370" width="120" height="60" as="geometry" />
        </mxCell>
        <mxCell id="lR953RYhTkeYb5tcaeql-17" value="Enter UPI Pin and Pay" style="rounded=0;whiteSpace=wrap;html=1;" vertex="1" parent="1">
          <mxGeometry x="620" y="370" width="120" height="60" as="geometry" />
        </mxCell>
        <mxCell id="lR953RYhTkeYb5tcaeql-58" style="edgeStyle=orthogonalEdgeStyle;rounded=0;orthogonalLoop=1;jettySize=auto;html=1;exitX=1;exitY=0.5;exitDx=0;exitDy=0;entryX=0;entryY=0.5;entryDx=0;entryDy=0;" edge="1" parent="1" source="lR953RYhTkeYb5tcaeql-18" target="lR953RYhTkeYb5tcaeql-19">
          <mxGeometry relative="1" as="geometry" />
        </mxCell>
        <mxCell id="lR953RYhTkeYb5tcaeql-18" value="Select Friend whom you want to pay" style="rounded=0;whiteSpace=wrap;html=1;" vertex="1" parent="1">
          <mxGeometry x="490" y="440" width="120" height="60" as="geometry" />
        </mxCell>
        <mxCell id="lR953RYhTkeYb5tcaeql-59" style="edgeStyle=orthogonalEdgeStyle;rounded=0;orthogonalLoop=1;jettySize=auto;html=1;exitX=1;exitY=0.5;exitDx=0;exitDy=0;entryX=0;entryY=0.5;entryDx=0;entryDy=0;" edge="1" parent="1" source="lR953RYhTkeYb5tcaeql-19" target="lR953RYhTkeYb5tcaeql-20">
          <mxGeometry relative="1" as="geometry" />
        </mxCell>
        <mxCell id="lR953RYhTkeYb5tcaeql-19" value="Enter Amount and Other Details" style="rounded=0;whiteSpace=wrap;html=1;" vertex="1" parent="1">
          <mxGeometry x="620" y="440" width="120" height="60" as="geometry" />
        </mxCell>
        <mxCell id="lR953RYhTkeYb5tcaeql-20" value="Enter UPI Pin and Pay" style="rounded=0;whiteSpace=wrap;html=1;" vertex="1" parent="1">
          <mxGeometry x="750" y="440" width="120" height="60" as="geometry" />
        </mxCell>
        <mxCell id="lR953RYhTkeYb5tcaeql-61" style="edgeStyle=orthogonalEdgeStyle;rounded=0;orthogonalLoop=1;jettySize=auto;html=1;exitX=1;exitY=0.5;exitDx=0;exitDy=0;entryX=0;entryY=0.5;entryDx=0;entryDy=0;" edge="1" parent="1" source="lR953RYhTkeYb5tcaeql-21" target="lR953RYhTkeYb5tcaeql-22">
          <mxGeometry relative="1" as="geometry" />
        </mxCell>
        <mxCell id="lR953RYhTkeYb5tcaeql-21" value="Enter friend&#39;s Bank Account Details" style="rounded=0;whiteSpace=wrap;html=1;" vertex="1" parent="1">
          <mxGeometry x="490" y="510" width="120" height="60" as="geometry" />
        </mxCell>
        <mxCell id="lR953RYhTkeYb5tcaeql-62" style="edgeStyle=orthogonalEdgeStyle;rounded=0;orthogonalLoop=1;jettySize=auto;html=1;exitX=1;exitY=0.5;exitDx=0;exitDy=0;entryX=0;entryY=0.5;entryDx=0;entryDy=0;" edge="1" parent="1" source="lR953RYhTkeYb5tcaeql-22" target="lR953RYhTkeYb5tcaeql-23">
          <mxGeometry relative="1" as="geometry" />
        </mxCell>
        <mxCell id="lR953RYhTkeYb5tcaeql-22" value="Enter Amount And Other Details" style="rounded=0;whiteSpace=wrap;html=1;" vertex="1" parent="1">
          <mxGeometry x="620" y="510" width="120" height="60" as="geometry" />
        </mxCell>
        <mxCell id="lR953RYhTkeYb5tcaeql-23" value="Enter UPI Pin and Pay" style="rounded=0;whiteSpace=wrap;html=1;" vertex="1" parent="1">
          <mxGeometry x="750" y="510" width="120" height="60" as="geometry" />
        </mxCell>
        <mxCell id="lR953RYhTkeYb5tcaeql-64" style="edgeStyle=orthogonalEdgeStyle;rounded=0;orthogonalLoop=1;jettySize=auto;html=1;exitX=1;exitY=0.5;exitDx=0;exitDy=0;entryX=0;entryY=0.5;entryDx=0;entryDy=0;" edge="1" parent="1" source="lR953RYhTkeYb5tcaeql-24" target="lR953RYhTkeYb5tcaeql-25">
          <mxGeometry relative="1" as="geometry" />
        </mxCell>
        <mxCell id="lR953RYhTkeYb5tcaeql-24" value="Enter friend&#39;s phone number" style="rounded=0;whiteSpace=wrap;html=1;" vertex="1" parent="1">
          <mxGeometry x="490" y="580" width="120" height="60" as="geometry" />
        </mxCell>
        <mxCell id="lR953RYhTkeYb5tcaeql-65" style="edgeStyle=orthogonalEdgeStyle;rounded=0;orthogonalLoop=1;jettySize=auto;html=1;exitX=1;exitY=0.5;exitDx=0;exitDy=0;entryX=0;entryY=0.5;entryDx=0;entryDy=0;" edge="1" parent="1" source="lR953RYhTkeYb5tcaeql-25" target="lR953RYhTkeYb5tcaeql-26">
          <mxGeometry relative="1" as="geometry" />
        </mxCell>
        <mxCell id="lR953RYhTkeYb5tcaeql-25" value="Enter Amount And Other Details" style="rounded=0;whiteSpace=wrap;html=1;" vertex="1" parent="1">
          <mxGeometry x="620" y="580" width="120" height="60" as="geometry" />
        </mxCell>
        <mxCell id="lR953RYhTkeYb5tcaeql-26" value="Enter UPI Pin and Pay" style="rounded=0;whiteSpace=wrap;html=1;" vertex="1" parent="1">
          <mxGeometry x="750" y="580" width="120" height="60" as="geometry" />
        </mxCell>
        <mxCell id="lR953RYhTkeYb5tcaeql-67" style="edgeStyle=orthogonalEdgeStyle;rounded=0;orthogonalLoop=1;jettySize=auto;html=1;exitX=1;exitY=0.5;exitDx=0;exitDy=0;entryX=0;entryY=0.5;entryDx=0;entryDy=0;" edge="1" parent="1" source="lR953RYhTkeYb5tcaeql-27" target="lR953RYhTkeYb5tcaeql-30">
          <mxGeometry relative="1" as="geometry" />
        </mxCell>
        <mxCell id="lR953RYhTkeYb5tcaeql-27" value="Scan Friend&#39;s QR Code" style="rounded=0;whiteSpace=wrap;html=1;" vertex="1" parent="1">
          <mxGeometry x="490" y="650" width="120" height="60" as="geometry" />
        </mxCell>
        <mxCell id="lR953RYhTkeYb5tcaeql-46" style="edgeStyle=orthogonalEdgeStyle;rounded=0;orthogonalLoop=1;jettySize=auto;html=1;exitX=1;exitY=0.5;exitDx=0;exitDy=0;entryX=0;entryY=0.5;entryDx=0;entryDy=0;" edge="1" parent="1" source="lR953RYhTkeYb5tcaeql-28" target="lR953RYhTkeYb5tcaeql-15">
          <mxGeometry relative="1" as="geometry" />
        </mxCell>
        <mxCell id="lR953RYhTkeYb5tcaeql-28" value="Enter Amount and Other Details" style="rounded=0;whiteSpace=wrap;html=1;" vertex="1" parent="1">
          <mxGeometry x="490" y="300" width="120" height="60" as="geometry" />
        </mxCell>
        <mxCell id="lR953RYhTkeYb5tcaeql-29" value="Enter UPI Pin and Pay" style="rounded=0;whiteSpace=wrap;html=1;" vertex="1" parent="1">
          <mxGeometry x="750" y="650" width="120" height="60" as="geometry" />
        </mxCell>
        <mxCell id="lR953RYhTkeYb5tcaeql-68" style="edgeStyle=orthogonalEdgeStyle;rounded=0;orthogonalLoop=1;jettySize=auto;html=1;exitX=1;exitY=0.5;exitDx=0;exitDy=0;entryX=0;entryY=0.5;entryDx=0;entryDy=0;" edge="1" parent="1" source="lR953RYhTkeYb5tcaeql-30" target="lR953RYhTkeYb5tcaeql-29">
          <mxGeometry relative="1" as="geometry" />
        </mxCell>
        <mxCell id="lR953RYhTkeYb5tcaeql-30" value="Enter Amount and Other Details" style="rounded=0;whiteSpace=wrap;html=1;" vertex="1" parent="1">
          <mxGeometry x="620" y="650" width="120" height="60" as="geometry" />
        </mxCell>
        <mxCell id="lR953RYhTkeYb5tcaeql-31" value="Enter UPI Pin and Pay" style="rounded=0;whiteSpace=wrap;html=1;" vertex="1" parent="1">
          <mxGeometry x="620" y="720" width="120" height="60" as="geometry" />
        </mxCell>
        <mxCell id="lR953RYhTkeYb5tcaeql-39" value="" style="endArrow=none;html=1;" edge="1" parent="1">
          <mxGeometry width="50" height="50" relative="1" as="geometry">
            <mxPoint x="110" y="400" as="sourcePoint" />
            <mxPoint x="110" y="330" as="targetPoint" />
          </mxGeometry>
        </mxCell>
        <mxCell id="lR953RYhTkeYb5tcaeql-40" value="" style="endArrow=classic;html=1;entryX=0;entryY=0.5;entryDx=0;entryDy=0;" edge="1" parent="1" target="lR953RYhTkeYb5tcaeql-4">
          <mxGeometry width="50" height="50" relative="1" as="geometry">
            <mxPoint x="110" y="400" as="sourcePoint" />
            <mxPoint x="450" y="320" as="targetPoint" />
          </mxGeometry>
        </mxCell>
        <mxCell id="lR953RYhTkeYb5tcaeql-41" value="" style="endArrow=none;html=1;" edge="1" parent="1">
          <mxGeometry width="50" height="50" relative="1" as="geometry">
            <mxPoint x="110" y="470" as="sourcePoint" />
            <mxPoint x="110" y="400" as="targetPoint" />
          </mxGeometry>
        </mxCell>
        <mxCell id="lR953RYhTkeYb5tcaeql-43" value="" style="endArrow=classic;html=1;entryX=0;entryY=0.5;entryDx=0;entryDy=0;" edge="1" parent="1" target="lR953RYhTkeYb5tcaeql-6">
          <mxGeometry width="50" height="50" relative="1" as="geometry">
            <mxPoint x="110" y="470" as="sourcePoint" />
            <mxPoint x="450" y="320" as="targetPoint" />
          </mxGeometry>
        </mxCell>
        <mxCell id="lR953RYhTkeYb5tcaeql-53" value="" style="endArrow=classic;html=1;entryX=0;entryY=0.5;entryDx=0;entryDy=0;" edge="1" parent="1" target="lR953RYhTkeYb5tcaeql-8">
          <mxGeometry width="50" height="50" relative="1" as="geometry">
            <mxPoint x="340" y="540" as="sourcePoint" />
            <mxPoint x="560" y="520" as="targetPoint" />
          </mxGeometry>
        </mxCell>
        <mxCell id="lR953RYhTkeYb5tcaeql-54" value="" style="endArrow=classic;html=1;entryX=0;entryY=0.5;entryDx=0;entryDy=0;" edge="1" parent="1" target="lR953RYhTkeYb5tcaeql-7">
          <mxGeometry width="50" height="50" relative="1" as="geometry">
            <mxPoint x="340" y="470" as="sourcePoint" />
            <mxPoint x="560" y="520" as="targetPoint" />
          </mxGeometry>
        </mxCell>
        <mxCell id="lR953RYhTkeYb5tcaeql-55" value="" style="endArrow=classic;html=1;entryX=0;entryY=0.5;entryDx=0;entryDy=0;" edge="1" parent="1" target="lR953RYhTkeYb5tcaeql-9">
          <mxGeometry width="50" height="50" relative="1" as="geometry">
            <mxPoint x="340" y="610" as="sourcePoint" />
            <mxPoint x="370" y="550" as="targetPoint" />
          </mxGeometry>
        </mxCell>
        <mxCell id="lR953RYhTkeYb5tcaeql-56" value="" style="endArrow=classic;html=1;" edge="1" parent="1">
          <mxGeometry width="50" height="50" relative="1" as="geometry">
            <mxPoint x="340" y="680" as="sourcePoint" />
            <mxPoint x="360" y="680" as="targetPoint" />
          </mxGeometry>
        </mxCell>
        <mxCell id="lR953RYhTkeYb5tcaeql-71" value="Compact Version" style="rounded=0;whiteSpace=wrap;html=1;" vertex="1" parent="1">
          <mxGeometry x="30" y="840" width="730" height="60" as="geometry" />
        </mxCell>
        <mxCell id="lR953RYhTkeYb5tcaeql-77" style="edgeStyle=orthogonalEdgeStyle;rounded=0;orthogonalLoop=1;jettySize=auto;html=1;exitX=1;exitY=0.5;exitDx=0;exitDy=0;entryX=0;entryY=0.5;entryDx=0;entryDy=0;" edge="1" parent="1" source="lR953RYhTkeYb5tcaeql-72" target="lR953RYhTkeYb5tcaeql-73">
          <mxGeometry relative="1" as="geometry" />
        </mxCell>
        <mxCell id="lR953RYhTkeYb5tcaeql-72" value="Open App and Enter App Pin" style="rounded=0;whiteSpace=wrap;html=1;" vertex="1" parent="1">
          <mxGeometry x="40" y="960" width="120" height="60" as="geometry" />
        </mxCell>
        <mxCell id="lR953RYhTkeYb5tcaeql-78" style="edgeStyle=orthogonalEdgeStyle;rounded=0;orthogonalLoop=1;jettySize=auto;html=1;exitX=1;exitY=0.5;exitDx=0;exitDy=0;entryX=0;entryY=0.5;entryDx=0;entryDy=0;" edge="1" parent="1" source="lR953RYhTkeYb5tcaeql-73" target="lR953RYhTkeYb5tcaeql-74">
          <mxGeometry relative="1" as="geometry" />
        </mxCell>
        <mxCell id="lR953RYhTkeYb5tcaeql-73" value="Select Friend whom you want to pay" style="rounded=0;whiteSpace=wrap;html=1;" vertex="1" parent="1">
          <mxGeometry x="200" y="960" width="120" height="60" as="geometry" />
        </mxCell>
        <mxCell id="lR953RYhTkeYb5tcaeql-79" style="edgeStyle=orthogonalEdgeStyle;rounded=0;orthogonalLoop=1;jettySize=auto;html=1;exitX=1;exitY=0.5;exitDx=0;exitDy=0;entryX=0;entryY=0.5;entryDx=0;entryDy=0;" edge="1" parent="1" source="lR953RYhTkeYb5tcaeql-74" target="lR953RYhTkeYb5tcaeql-75">
          <mxGeometry relative="1" as="geometry" />
        </mxCell>
        <mxCell id="lR953RYhTkeYb5tcaeql-74" value="Enter Amount" style="rounded=0;whiteSpace=wrap;html=1;" vertex="1" parent="1">
          <mxGeometry x="360" y="960" width="120" height="60" as="geometry" />
        </mxCell>
        <mxCell id="lR953RYhTkeYb5tcaeql-80" style="edgeStyle=orthogonalEdgeStyle;rounded=0;orthogonalLoop=1;jettySize=auto;html=1;exitX=1;exitY=0.5;exitDx=0;exitDy=0;entryX=0;entryY=0.5;entryDx=0;entryDy=0;" edge="1" parent="1" source="lR953RYhTkeYb5tcaeql-75" target="lR953RYhTkeYb5tcaeql-76">
          <mxGeometry relative="1" as="geometry" />
        </mxCell>
        <mxCell id="lR953RYhTkeYb5tcaeql-75" value="Enter UPI Pin" style="rounded=0;whiteSpace=wrap;html=1;" vertex="1" parent="1">
          <mxGeometry x="520" y="960" width="120" height="60" as="geometry" />
        </mxCell>
        <mxCell id="lR953RYhTkeYb5tcaeql-76" value="Exit App" style="rounded=0;whiteSpace=wrap;html=1;" vertex="1" parent="1">
          <mxGeometry x="680" y="960" width="120" height="60" as="geometry" />
        </mxCell>
      </root>
    </mxGraphModel>
  </diagram>
</mxfile>
